<?xml version="1.0" standalone="no"?>
<!DOCTYPE svg PUBLIC "-//W3C//DTD SVG 20010904//EN"
 "http://www.w3.org/TR/2001/REC-SVG-20010904/DTD/svg10.dtd">
<svg version="1.0" xmlns="http://www.w3.org/2000/svg"
 width="700.000000pt" height="700.000000pt" viewBox="0 0 700.000000 700.000000"
 preserveAspectRatio="xMidYMid meet">
<metadata>
Created by potrace 1.14, written by Peter Selinger 2001-2017
</metadata>
<g transform="translate(0.000000,700.000000) scale(0.100000,-0.100000)"
fill="#000000" stroke="none">
<path d="M3278 6995 c-1 -1 -42 -5 -89 -9 -47 -4 -95 -8 -105 -10 -10 -2 -41
-7 -69 -10 -27 -4 -72 -11 -100 -16 -27 -5 -61 -12 -75 -14 -392 -72 -795
-227 -1165 -449 -561 -337 -1063 -896 -1342 -1495 -106 -227 -213 -541 -248
-723 -3 -13 -12 -58 -20 -99 -8 -41 -17 -91 -20 -110 -3 -19 -7 -46 -10 -60
-3 -14 -7 -50 -10 -80 -3 -30 -9 -89 -14 -130 -9 -76 -7 -549 2 -605 4 -26 10
-71 22 -175 8 -75 21 -144 50 -280 87 -407 290 -868 537 -1223 176 -252 358
-452 619 -682 43 -38 307 -235 345 -257 16 -10 38 -23 48 -30 189 -124 534
-287 771 -364 71 -22 212 -63 243 -69 9 -2 44 -10 77 -18 33 -8 78 -18 100
-23 22 -4 42 -8 45 -9 3 -1 30 -5 60 -9 30 -5 62 -10 70 -11 166 -30 609 -43
791 -24 41 5 99 11 129 14 63 7 51 5 265 41 17 3 48 10 70 16 22 5 51 12 65
14 14 3 81 21 150 40 870 249 1626 846 2074 1637 57 100 176 340 176 354 0 2
8 23 19 46 20 44 75 198 110 307 44 137 108 443 127 605 4 33 9 76 11 95 8 74
10 519 2 602 -16 168 -34 299 -54 388 -3 14 -8 39 -11 55 -38 212 -155 553
-271 794 -88 181 -254 461 -273 461 -5 0 -314 -306 -348 -344 -2 -2 28 -57 65
-123 182 -313 315 -677 367 -1008 2 -16 8 -50 11 -75 4 -25 9 -54 11 -64 17
-92 23 -462 10 -611 -9 -97 -27 -233 -41 -305 -3 -14 -7 -34 -9 -46 -82 -430
-305 -907 -596 -1274 -94 -119 -328 -356 -440 -446 -72 -58 -233 -176 -275
-201 -215 -130 -303 -177 -465 -246 -88 -37 -329 -121 -380 -132 -8 -2 -54
-13 -102 -24 -47 -11 -101 -23 -120 -26 -18 -3 -58 -10 -88 -15 -30 -5 -77
-12 -105 -16 -27 -3 -66 -8 -85 -10 -19 -3 -129 -6 -245 -8 -186 -3 -343 6
-477 28 -21 3 -55 8 -75 11 -21 3 -56 10 -78 15 -22 5 -71 17 -110 26 -98 22
-92 20 -180 47 -292 89 -609 246 -855 420 -82 59 -156 116 -191 147 -154 138
-217 200 -284 274 -44 49 -87 97 -97 106 -32 35 -136 176 -197 268 -276 415
-451 921 -488 1417 -34 458 30 902 191 1317 68 176 132 304 260 521 82 139
311 422 447 552 62 59 206 185 244 213 6 4 37 28 70 53 33 25 87 62 120 83 33
21 71 46 85 55 23 16 61 38 200 113 68 37 213 101 325 143 577 217 1221 248
1821 89 94 -24 234 -68 269 -84 11 -5 61 -25 110 -45 117 -48 282 -131 394
-199 l90 -53 175 175 c173 172 176 176 156 194 -10 10 -23 18 -28 18 -5 0 -17
9 -27 20 -10 11 -21 20 -25 20 -3 0 -54 29 -112 63 -352 212 -849 392 -1218
442 -19 3 -46 7 -60 10 -13 2 -54 7 -90 11 -36 3 -78 8 -95 11 -33 5 -531 13
-537 8z"/>
<path d="M5263 6812 l-1 -48 101 -59 c167 -97 473 -312 484 -341 2 -6 -107
-123 -242 -259 l-247 -247 23 -16 c13 -9 29 -21 35 -27 6 -5 40 -35 75 -65 87
-76 217 -209 301 -307 39 -46 72 -83 75 -83 2 0 114 110 248 245 134 135 246
245 249 245 19 0 228 -295 337 -475 l66 -110 49 -3 49 -3 0 798 0 798 -801 3
-800 2 -1 -48z"/>
<path d="M2469 3856 c-2 -2 -26 -7 -54 -10 -72 -10 -166 -57 -216 -109 -107
-110 -108 -282 -1 -396 46 -49 128 -94 189 -106 16 -3 39 -7 53 -11 44 -9 196
-6 257 6 32 7 85 25 118 42 117 59 168 141 169 268 1 61 -4 84 -24 123 -41 81
-129 149 -225 173 -16 4 -37 9 -45 11 -21 6 -216 14 -221 9z m149 -110 c20
-10 40 -35 58 -71 48 -100 30 -257 -39 -322 -37 -35 -75 -45 -123 -30 -71 22
-114 110 -109 226 2 70 31 153 63 178 50 41 96 47 150 19z"/>
<path d="M5540 3845 c-129 -32 -211 -89 -258 -179 -34 -67 -37 -177 -5 -247
56 -125 205 -199 403 -200 168 -1 294 42 368 126 85 97 99 249 31 347 -46 68
-112 114 -208 144 -64 21 -262 26 -331 9z m236 -116 c61 -50 80 -234 34 -324
-14 -26 -37 -57 -52 -68 -35 -26 -104 -27 -141 -2 -100 66 -105 311 -8 399 41
37 119 35 167 -5z"/>
<path d="M859 3846 c-2 -3 -3 -25 -1 -49 l4 -44 65 2 c77 3 56 29 233 -292 67
-123 125 -223 128 -224 4 -1 77 -2 162 -3 133 -1 156 1 169 16 8 9 38 61 67
115 87 164 131 245 171 318 l38 70 71 0 70 0 0 47 0 48 -213 0 -213 0 0 -48 0
-48 60 1 c33 1 60 -1 60 -3 0 -7 -152 -290 -182 -340 l-20 -33 -28 53 c-15 29
-38 73 -52 98 -52 94 -118 217 -118 222 0 2 28 4 63 3 34 -1 67 0 72 2 6 2 9
23 7 48 l-4 45 -302 0 c-167 0 -305 -2 -307 -4z"/>
<path d="M3160 3802 l0 -48 65 1 c36 1 69 -3 72 -8 3 -5 6 -100 6 -211 l1
-201 -40 -2 c-21 -1 -54 -2 -71 -2 -31 -1 -33 -3 -33 -40 0 -21 6 -43 13 -48
6 -4 195 -8 422 -8 l410 1 3 143 3 142 -47 -3 c-42 -3 -47 -6 -50 -29 -2 -27
-23 -70 -47 -101 -29 -37 -97 -58 -189 -58 -49 0 -89 3 -89 8 -1 4 -2 98 -3
210 -1 130 2 202 9 203 5 1 33 3 60 4 28 1 56 3 63 4 7 1 12 17 12 46 l0 45
-285 0 -285 0 0 -48z"/>
<path d="M3999 3848 c-1 -2 -3 -22 -4 -45 -3 -48 -1 -49 80 -48 59 0 60 -1 79
-35 77 -146 251 -458 262 -470 19 -22 318 -21 338 1 7 8 37 59 66 114 76 143
105 198 162 301 l49 90 57 -1 c78 -2 82 0 82 51 l0 44 -210 0 -210 0 0 -48 0
-49 48 2 c71 3 74 -1 43 -53 -15 -26 -60 -109 -100 -184 -63 -118 -91 -154
-91 -119 0 5 -32 66 -70 136 -39 70 -82 149 -95 175 l-24 48 62 -3 c34 -1 68
0 75 3 7 2 12 22 12 48 l0 44 -305 0 c-168 0 -306 -1 -306 -2z"/>
</g>
</svg>
